# xmcd CD database file
# Copyright (C) 1993-1998  Ti Kan
#
# Track frame offsets:
#	150
#	30813
#	51990
#	72325
#	97880
#	122815
#	149933
#	161445
#	174170
#	188580
#	207203
#	220375
#	230718
#	245108
#	260520
#	277583
#	288775
#	304298
#
# Disc length: 4242 seconds
#
# Revision: 1
# Processed by: cddbd v1.4b41PL1 Copyright (c) Steve Scherf et al.
# Submitted via: xmcd 2.3 PL0
#
DISCID=08109012
DTITLE=Billie Holiday - Songs for Distingué Lovers
DYEAR=1900
DGENRE=
TTITLE0=Day In Day Out
TTITLE1=A Foggy day
TTITLE2=Stars Fell On Alabama
TTITLE3=One For My Baby
TTITLE4=Just One Of Those Things
TTITLE5=I Didn't Know What Time It Was
TTITLE6=All Of You
TTITLE7=Sometimes I'm Happy
TTITLE8=You Took Advantage On Me
TTITLE9=When It's Sleepy Time Down South
TTITLE10=There'll Be Some Changes Made
TTITLE11=Deed I do
TTITLE12=Don't Worry 'bout Me
TTITLE13=All The Way
TTITLE14=Just One More Chance
TTITLE15=It's Not For Me To Say
TTITLE16=I'll Never Smile Again
TTITLE17=Baby, Won't You Please Come Home
EXTD=
EXTT0=
EXTT1=
EXTT2=
EXTT3=
EXTT4=
EXTT5=
EXTT6=
EXTT7=
EXTT8=
EXTT9=
EXTT10=
EXTT11=
EXTT12=
EXTT13=
EXTT14=
EXTT15=
EXTT16=
EXTT17=
PLAYORDER=
